<mxfile host="app.diagrams.net" modified="2022-06-14T11:42:55.391Z" agent="5.0 (Windows NT 6.1; Win64; x64) AppleWebKit/537.36 (KHTML, like Gecko) Chrome/102.0.5005.63 Safari/537.36" etag="lroRdqJ0w1oWKKJ6RoMN" version="20.0.1" type="github" pages="9">
  <diagram id="s3_rZpUqIs9wO1BIIEFA" name="Login">
    <mxGraphModel dx="862" dy="520" grid="1" gridSize="10" guides="1" tooltips="1" connect="1" arrows="1" fold="1" page="1" pageScale="1" pageWidth="827" pageHeight="1169" math="0" shadow="0">
      <root>
        <mxCell id="0" />
        <mxCell id="1" parent="0" />
        <mxCell id="kVsGt628u8kohEwgguIc-1" value="User" style="shape=umlLifeline;perimeter=lifelinePerimeter;container=1;collapsible=0;recursiveResize=0;rounded=0;shadow=0;strokeWidth=1;" parent="1" vertex="1">
          <mxGeometry x="65" y="60" width="100" height="400" as="geometry" />
        </mxCell>
        <mxCell id="kVsGt628u8kohEwgguIc-2" value="" style="points=[];perimeter=orthogonalPerimeter;rounded=0;shadow=0;strokeWidth=1;" parent="kVsGt628u8kohEwgguIc-1" vertex="1">
          <mxGeometry x="45" y="70" width="10" height="60" as="geometry" />
        </mxCell>
        <mxCell id="kVsGt628u8kohEwgguIc-3" value="" style="verticalAlign=bottom;startArrow=oval;endArrow=block;startSize=8;shadow=0;strokeWidth=1;rounded=0;" parent="kVsGt628u8kohEwgguIc-1" target="kVsGt628u8kohEwgguIc-2" edge="1">
          <mxGeometry relative="1" as="geometry">
            <mxPoint x="-15" y="70" as="sourcePoint" />
          </mxGeometry>
        </mxCell>
        <mxCell id="kVsGt628u8kohEwgguIc-23" value="" style="points=[];perimeter=orthogonalPerimeter;rounded=0;shadow=0;strokeWidth=1;" parent="kVsGt628u8kohEwgguIc-1" vertex="1">
          <mxGeometry x="45" y="200" width="10" height="60" as="geometry" />
        </mxCell>
        <mxCell id="kVsGt628u8kohEwgguIc-5" value="User Login" style="shape=umlLifeline;perimeter=lifelinePerimeter;container=1;collapsible=0;recursiveResize=0;rounded=0;shadow=0;strokeWidth=1;" parent="1" vertex="1">
          <mxGeometry x="245" y="60" width="100" height="400" as="geometry" />
        </mxCell>
        <mxCell id="kVsGt628u8kohEwgguIc-6" value="" style="points=[];perimeter=orthogonalPerimeter;rounded=0;shadow=0;strokeWidth=1;" parent="kVsGt628u8kohEwgguIc-5" vertex="1">
          <mxGeometry x="45" y="80" width="10" height="220" as="geometry" />
        </mxCell>
        <mxCell id="kVsGt628u8kohEwgguIc-25" value="username, password salah" style="verticalAlign=bottom;endArrow=block;shadow=0;strokeWidth=1;rounded=0;exitX=0;exitY=0.421;exitDx=0;exitDy=0;exitPerimeter=0;dashed=1;" parent="kVsGt628u8kohEwgguIc-5" source="kVsGt628u8kohEwgguIc-12" edge="1">
          <mxGeometry relative="1" as="geometry">
            <mxPoint x="221.20000000000005" y="190.2" as="sourcePoint" />
            <mxPoint x="55.000000000000014" y="189.8" as="targetPoint" />
          </mxGeometry>
        </mxCell>
        <mxCell id="kVsGt628u8kohEwgguIc-33" value="menampilkan dashboard" style="verticalAlign=bottom;endArrow=block;shadow=0;strokeWidth=1;rounded=0;dashed=1;exitX=-0.297;exitY=0.852;exitDx=0;exitDy=0;exitPerimeter=0;" parent="kVsGt628u8kohEwgguIc-5" edge="1">
          <mxGeometry relative="1" as="geometry">
            <mxPoint x="212.02999999999997" y="299.49" as="sourcePoint" />
            <mxPoint x="55" y="299.31000000000006" as="targetPoint" />
          </mxGeometry>
        </mxCell>
        <mxCell id="kVsGt628u8kohEwgguIc-8" value="Isi username, password" style="verticalAlign=bottom;endArrow=block;entryX=0;entryY=0;shadow=0;strokeWidth=1;rounded=0;" parent="1" source="kVsGt628u8kohEwgguIc-2" target="kVsGt628u8kohEwgguIc-6" edge="1">
          <mxGeometry relative="1" as="geometry">
            <mxPoint x="220" y="140" as="sourcePoint" />
          </mxGeometry>
        </mxCell>
        <mxCell id="kVsGt628u8kohEwgguIc-11" value="Sistem" style="shape=umlLifeline;perimeter=lifelinePerimeter;container=1;collapsible=0;recursiveResize=0;rounded=0;shadow=0;strokeWidth=1;" parent="1" vertex="1">
          <mxGeometry x="405" y="60" width="100" height="400" as="geometry" />
        </mxCell>
        <mxCell id="kVsGt628u8kohEwgguIc-12" value="" style="points=[];perimeter=orthogonalPerimeter;rounded=0;shadow=0;strokeWidth=1;" parent="kVsGt628u8kohEwgguIc-11" vertex="1">
          <mxGeometry x="45" y="110" width="10" height="190" as="geometry" />
        </mxCell>
        <mxCell id="kVsGt628u8kohEwgguIc-13" value="Database" style="shape=umlLifeline;perimeter=lifelinePerimeter;container=1;collapsible=0;recursiveResize=0;rounded=0;shadow=0;strokeWidth=1;" parent="1" vertex="1">
          <mxGeometry x="575" y="60" width="100" height="400" as="geometry" />
        </mxCell>
        <mxCell id="kVsGt628u8kohEwgguIc-14" value="" style="points=[];perimeter=orthogonalPerimeter;rounded=0;shadow=0;strokeWidth=1;" parent="kVsGt628u8kohEwgguIc-13" vertex="1">
          <mxGeometry x="45" y="130" width="10" height="170" as="geometry" />
        </mxCell>
        <mxCell id="kVsGt628u8kohEwgguIc-20" value="" style="points=[];perimeter=orthogonalPerimeter;rounded=0;shadow=0;strokeWidth=1;" parent="kVsGt628u8kohEwgguIc-13" vertex="1">
          <mxGeometry x="51" y="175" width="10" height="50" as="geometry" />
        </mxCell>
        <mxCell id="kVsGt628u8kohEwgguIc-21" style="edgeStyle=orthogonalEdgeStyle;rounded=0;orthogonalLoop=1;jettySize=auto;html=1;entryX=1.088;entryY=0.074;entryDx=0;entryDy=0;entryPerimeter=0;exitX=1.003;exitY=0.136;exitDx=0;exitDy=0;exitPerimeter=0;" parent="kVsGt628u8kohEwgguIc-13" source="kVsGt628u8kohEwgguIc-14" target="kVsGt628u8kohEwgguIc-20" edge="1">
          <mxGeometry relative="1" as="geometry">
            <Array as="points">
              <mxPoint x="55" y="141" />
              <mxPoint x="115" y="141" />
              <mxPoint x="115" y="179" />
            </Array>
          </mxGeometry>
        </mxCell>
        <mxCell id="kVsGt628u8kohEwgguIc-15" value="Dashboard" style="shape=umlLifeline;perimeter=lifelinePerimeter;container=1;collapsible=0;recursiveResize=0;rounded=0;shadow=0;strokeWidth=1;" parent="1" vertex="1">
          <mxGeometry x="740" y="60" width="100" height="400" as="geometry" />
        </mxCell>
        <mxCell id="kVsGt628u8kohEwgguIc-16" value="" style="points=[];perimeter=orthogonalPerimeter;rounded=0;shadow=0;strokeWidth=1;" parent="kVsGt628u8kohEwgguIc-15" vertex="1">
          <mxGeometry x="45" y="230" width="10" height="70" as="geometry" />
        </mxCell>
        <mxCell id="kVsGt628u8kohEwgguIc-29" value="menampilkan dashboard" style="verticalAlign=bottom;endArrow=block;shadow=0;strokeWidth=1;rounded=0;dashed=1;exitX=-0.245;exitY=0.502;exitDx=0;exitDy=0;exitPerimeter=0;" parent="kVsGt628u8kohEwgguIc-15" source="kVsGt628u8kohEwgguIc-16" edge="1">
          <mxGeometry relative="1" as="geometry">
            <mxPoint x="30" y="264.66" as="sourcePoint" />
            <mxPoint x="-110" y="264.66" as="targetPoint" />
          </mxGeometry>
        </mxCell>
        <mxCell id="kVsGt628u8kohEwgguIc-17" value="username, password" style="verticalAlign=bottom;endArrow=block;shadow=0;strokeWidth=1;rounded=0;exitX=1.129;exitY=0.234;exitDx=0;exitDy=0;exitPerimeter=0;" parent="1" source="kVsGt628u8kohEwgguIc-6" edge="1">
          <mxGeometry relative="1" as="geometry">
            <mxPoint x="130" y="150.0000000000001" as="sourcePoint" />
            <mxPoint x="450" y="191" as="targetPoint" />
          </mxGeometry>
        </mxCell>
        <mxCell id="kVsGt628u8kohEwgguIc-19" value="users data" style="verticalAlign=bottom;endArrow=block;shadow=0;strokeWidth=1;rounded=0;exitX=1.3;exitY=0.281;exitDx=0;exitDy=0;exitPerimeter=0;entryX=-0.116;entryY=0.12;entryDx=0;entryDy=0;entryPerimeter=0;" parent="1" target="kVsGt628u8kohEwgguIc-14" edge="1">
          <mxGeometry relative="1" as="geometry">
            <mxPoint x="460" y="210.92000000000004" as="sourcePoint" />
            <mxPoint x="620" y="211" as="targetPoint" />
          </mxGeometry>
        </mxCell>
        <mxCell id="kVsGt628u8kohEwgguIc-22" value="validasi data" style="text;html=1;align=center;verticalAlign=middle;resizable=0;points=[];autosize=1;strokeColor=none;fillColor=none;" parent="1" vertex="1">
          <mxGeometry x="630" y="180" width="80" height="20" as="geometry" />
        </mxCell>
        <mxCell id="kVsGt628u8kohEwgguIc-24" value="username, password salah" style="verticalAlign=bottom;endArrow=block;shadow=0;strokeWidth=1;rounded=0;exitX=0.02;exitY=0.048;exitDx=0;exitDy=0;exitPerimeter=0;dashed=1;" parent="1" source="kVsGt628u8kohEwgguIc-20" edge="1">
          <mxGeometry relative="1" as="geometry">
            <mxPoint x="450" y="300.48" as="sourcePoint" />
            <mxPoint x="460" y="237" as="targetPoint" />
          </mxGeometry>
        </mxCell>
        <mxCell id="kVsGt628u8kohEwgguIc-26" value="pesan username, password salah" style="verticalAlign=bottom;endArrow=block;shadow=0;strokeWidth=1;rounded=0;exitX=-0.22;exitY=0.543;exitDx=0;exitDy=0;exitPerimeter=0;dashed=1;" parent="1" source="kVsGt628u8kohEwgguIc-6" edge="1">
          <mxGeometry relative="1" as="geometry">
            <mxPoint x="270" y="259.98999999999995" as="sourcePoint" />
            <mxPoint x="120" y="259.8" as="targetPoint" />
          </mxGeometry>
        </mxCell>
        <mxCell id="kVsGt628u8kohEwgguIc-28" value="menampilkan dashboard" style="verticalAlign=bottom;endArrow=block;shadow=0;strokeWidth=1;rounded=0;exitX=1.3;exitY=0.281;exitDx=0;exitDy=0;exitPerimeter=0;entryX=-0.071;entryY=0.15;entryDx=0;entryDy=0;entryPerimeter=0;" parent="1" target="kVsGt628u8kohEwgguIc-16" edge="1">
          <mxGeometry relative="1" as="geometry">
            <mxPoint x="630" y="300.5200000000001" as="sourcePoint" />
            <mxPoint x="780" y="300" as="targetPoint" />
          </mxGeometry>
        </mxCell>
        <mxCell id="kVsGt628u8kohEwgguIc-32" value="menampilkan dashboard" style="verticalAlign=bottom;endArrow=block;shadow=0;strokeWidth=1;rounded=0;dashed=1;exitX=-0.297;exitY=0.852;exitDx=0;exitDy=0;exitPerimeter=0;" parent="1" source="kVsGt628u8kohEwgguIc-14" edge="1">
          <mxGeometry relative="1" as="geometry">
            <mxPoint x="612.55" y="335.14" as="sourcePoint" />
            <mxPoint x="460" y="334.6600000000001" as="targetPoint" />
          </mxGeometry>
        </mxCell>
        <mxCell id="kVsGt628u8kohEwgguIc-34" value="" style="points=[];perimeter=orthogonalPerimeter;rounded=0;shadow=0;strokeWidth=1;" parent="1" vertex="1">
          <mxGeometry x="110" y="360" width="10" height="60" as="geometry" />
        </mxCell>
        <mxCell id="kVsGt628u8kohEwgguIc-35" value="dashboard tampil" style="verticalAlign=bottom;endArrow=block;shadow=0;strokeWidth=1;rounded=0;dashed=1;exitX=-0.262;exitY=0.995;exitDx=0;exitDy=0;exitPerimeter=0;" parent="1" source="kVsGt628u8kohEwgguIc-6" edge="1">
          <mxGeometry relative="1" as="geometry">
            <mxPoint x="277.03" y="360.18" as="sourcePoint" />
            <mxPoint x="120" y="360.00000000000006" as="targetPoint" />
          </mxGeometry>
        </mxCell>
      </root>
    </mxGraphModel>
  </diagram>
  <diagram id="NVmJJJjDzWAE657K5POB" name="Register">
    <mxGraphModel dx="862" dy="463" grid="1" gridSize="10" guides="1" tooltips="1" connect="1" arrows="1" fold="1" page="1" pageScale="1" pageWidth="827" pageHeight="1169" math="0" shadow="0">
      <root>
        <mxCell id="0" />
        <mxCell id="1" parent="0" />
        <mxCell id="4dZK6Ni6zUAlFKb88EGr-1" value="User" style="shape=umlLifeline;perimeter=lifelinePerimeter;container=1;collapsible=0;recursiveResize=0;rounded=0;shadow=0;strokeWidth=1;" vertex="1" parent="1">
          <mxGeometry x="65" y="60" width="100" height="400" as="geometry" />
        </mxCell>
        <mxCell id="4dZK6Ni6zUAlFKb88EGr-2" value="" style="points=[];perimeter=orthogonalPerimeter;rounded=0;shadow=0;strokeWidth=1;" vertex="1" parent="4dZK6Ni6zUAlFKb88EGr-1">
          <mxGeometry x="45" y="70" width="10" height="60" as="geometry" />
        </mxCell>
        <mxCell id="4dZK6Ni6zUAlFKb88EGr-3" value="" style="verticalAlign=bottom;startArrow=oval;endArrow=block;startSize=8;shadow=0;strokeWidth=1;rounded=0;" edge="1" parent="4dZK6Ni6zUAlFKb88EGr-1" target="4dZK6Ni6zUAlFKb88EGr-2">
          <mxGeometry relative="1" as="geometry">
            <mxPoint x="-15" y="70" as="sourcePoint" />
          </mxGeometry>
        </mxCell>
        <mxCell id="4dZK6Ni6zUAlFKb88EGr-4" value="" style="points=[];perimeter=orthogonalPerimeter;rounded=0;shadow=0;strokeWidth=1;" vertex="1" parent="4dZK6Ni6zUAlFKb88EGr-1">
          <mxGeometry x="45" y="200" width="10" height="60" as="geometry" />
        </mxCell>
        <mxCell id="4dZK6Ni6zUAlFKb88EGr-5" value="User Register" style="shape=umlLifeline;perimeter=lifelinePerimeter;container=1;collapsible=0;recursiveResize=0;rounded=0;shadow=0;strokeWidth=1;" vertex="1" parent="1">
          <mxGeometry x="245" y="60" width="100" height="400" as="geometry" />
        </mxCell>
        <mxCell id="4dZK6Ni6zUAlFKb88EGr-6" value="" style="points=[];perimeter=orthogonalPerimeter;rounded=0;shadow=0;strokeWidth=1;" vertex="1" parent="4dZK6Ni6zUAlFKb88EGr-5">
          <mxGeometry x="45" y="80" width="10" height="220" as="geometry" />
        </mxCell>
        <mxCell id="4dZK6Ni6zUAlFKb88EGr-7" value="username terdaftar" style="verticalAlign=bottom;endArrow=block;shadow=0;strokeWidth=1;rounded=0;exitX=0;exitY=0.421;exitDx=0;exitDy=0;exitPerimeter=0;dashed=1;" edge="1" parent="4dZK6Ni6zUAlFKb88EGr-5" source="4dZK6Ni6zUAlFKb88EGr-11">
          <mxGeometry relative="1" as="geometry">
            <mxPoint x="221.20000000000005" y="190.2" as="sourcePoint" />
            <mxPoint x="55.000000000000014" y="189.8" as="targetPoint" />
          </mxGeometry>
        </mxCell>
        <mxCell id="4dZK6Ni6zUAlFKb88EGr-8" value="menampilkan dashboard" style="verticalAlign=bottom;endArrow=block;shadow=0;strokeWidth=1;rounded=0;dashed=1;exitX=-0.297;exitY=0.852;exitDx=0;exitDy=0;exitPerimeter=0;" edge="1" parent="4dZK6Ni6zUAlFKb88EGr-5">
          <mxGeometry relative="1" as="geometry">
            <mxPoint x="212.02999999999997" y="299.49" as="sourcePoint" />
            <mxPoint x="55" y="299.31000000000006" as="targetPoint" />
          </mxGeometry>
        </mxCell>
        <mxCell id="4dZK6Ni6zUAlFKb88EGr-9" value="Isi username, password" style="verticalAlign=bottom;endArrow=block;entryX=0;entryY=0;shadow=0;strokeWidth=1;rounded=0;" edge="1" parent="1" source="4dZK6Ni6zUAlFKb88EGr-2" target="4dZK6Ni6zUAlFKb88EGr-6">
          <mxGeometry relative="1" as="geometry">
            <mxPoint x="220" y="140" as="sourcePoint" />
          </mxGeometry>
        </mxCell>
        <mxCell id="4dZK6Ni6zUAlFKb88EGr-10" value="Sistem" style="shape=umlLifeline;perimeter=lifelinePerimeter;container=1;collapsible=0;recursiveResize=0;rounded=0;shadow=0;strokeWidth=1;" vertex="1" parent="1">
          <mxGeometry x="405" y="60" width="100" height="400" as="geometry" />
        </mxCell>
        <mxCell id="4dZK6Ni6zUAlFKb88EGr-11" value="" style="points=[];perimeter=orthogonalPerimeter;rounded=0;shadow=0;strokeWidth=1;" vertex="1" parent="4dZK6Ni6zUAlFKb88EGr-10">
          <mxGeometry x="45" y="110" width="10" height="190" as="geometry" />
        </mxCell>
        <mxCell id="4dZK6Ni6zUAlFKb88EGr-12" value="Database" style="shape=umlLifeline;perimeter=lifelinePerimeter;container=1;collapsible=0;recursiveResize=0;rounded=0;shadow=0;strokeWidth=1;" vertex="1" parent="1">
          <mxGeometry x="575" y="60" width="100" height="400" as="geometry" />
        </mxCell>
        <mxCell id="4dZK6Ni6zUAlFKb88EGr-13" value="" style="points=[];perimeter=orthogonalPerimeter;rounded=0;shadow=0;strokeWidth=1;" vertex="1" parent="4dZK6Ni6zUAlFKb88EGr-12">
          <mxGeometry x="45" y="130" width="10" height="170" as="geometry" />
        </mxCell>
        <mxCell id="4dZK6Ni6zUAlFKb88EGr-14" value="" style="points=[];perimeter=orthogonalPerimeter;rounded=0;shadow=0;strokeWidth=1;" vertex="1" parent="4dZK6Ni6zUAlFKb88EGr-12">
          <mxGeometry x="51" y="175" width="10" height="50" as="geometry" />
        </mxCell>
        <mxCell id="4dZK6Ni6zUAlFKb88EGr-15" style="edgeStyle=orthogonalEdgeStyle;rounded=0;orthogonalLoop=1;jettySize=auto;html=1;entryX=1.088;entryY=0.074;entryDx=0;entryDy=0;entryPerimeter=0;exitX=1.003;exitY=0.136;exitDx=0;exitDy=0;exitPerimeter=0;" edge="1" parent="4dZK6Ni6zUAlFKb88EGr-12" source="4dZK6Ni6zUAlFKb88EGr-13" target="4dZK6Ni6zUAlFKb88EGr-14">
          <mxGeometry relative="1" as="geometry">
            <Array as="points">
              <mxPoint x="55" y="141" />
              <mxPoint x="115" y="141" />
              <mxPoint x="115" y="179" />
            </Array>
          </mxGeometry>
        </mxCell>
        <mxCell id="4dZK6Ni6zUAlFKb88EGr-16" value="Dashboard" style="shape=umlLifeline;perimeter=lifelinePerimeter;container=1;collapsible=0;recursiveResize=0;rounded=0;shadow=0;strokeWidth=1;" vertex="1" parent="1">
          <mxGeometry x="740" y="60" width="100" height="400" as="geometry" />
        </mxCell>
        <mxCell id="4dZK6Ni6zUAlFKb88EGr-17" value="" style="points=[];perimeter=orthogonalPerimeter;rounded=0;shadow=0;strokeWidth=1;" vertex="1" parent="4dZK6Ni6zUAlFKb88EGr-16">
          <mxGeometry x="45" y="230" width="10" height="70" as="geometry" />
        </mxCell>
        <mxCell id="4dZK6Ni6zUAlFKb88EGr-18" value="menampilkan dashboard" style="verticalAlign=bottom;endArrow=block;shadow=0;strokeWidth=1;rounded=0;dashed=1;exitX=-0.245;exitY=0.502;exitDx=0;exitDy=0;exitPerimeter=0;" edge="1" parent="4dZK6Ni6zUAlFKb88EGr-16" source="4dZK6Ni6zUAlFKb88EGr-17">
          <mxGeometry relative="1" as="geometry">
            <mxPoint x="30" y="264.66" as="sourcePoint" />
            <mxPoint x="-110" y="264.66" as="targetPoint" />
          </mxGeometry>
        </mxCell>
        <mxCell id="4dZK6Ni6zUAlFKb88EGr-19" value="username, password" style="verticalAlign=bottom;endArrow=block;shadow=0;strokeWidth=1;rounded=0;exitX=1.129;exitY=0.234;exitDx=0;exitDy=0;exitPerimeter=0;" edge="1" parent="1" source="4dZK6Ni6zUAlFKb88EGr-6">
          <mxGeometry relative="1" as="geometry">
            <mxPoint x="130" y="150.0000000000001" as="sourcePoint" />
            <mxPoint x="450" y="191" as="targetPoint" />
          </mxGeometry>
        </mxCell>
        <mxCell id="4dZK6Ni6zUAlFKb88EGr-20" value="users data" style="verticalAlign=bottom;endArrow=block;shadow=0;strokeWidth=1;rounded=0;exitX=1.3;exitY=0.281;exitDx=0;exitDy=0;exitPerimeter=0;entryX=-0.116;entryY=0.12;entryDx=0;entryDy=0;entryPerimeter=0;" edge="1" parent="1" target="4dZK6Ni6zUAlFKb88EGr-13">
          <mxGeometry relative="1" as="geometry">
            <mxPoint x="460" y="210.92000000000007" as="sourcePoint" />
            <mxPoint x="620" y="211" as="targetPoint" />
          </mxGeometry>
        </mxCell>
        <mxCell id="4dZK6Ni6zUAlFKb88EGr-21" value="validasi data" style="text;html=1;align=center;verticalAlign=middle;resizable=0;points=[];autosize=1;strokeColor=none;fillColor=none;" vertex="1" parent="1">
          <mxGeometry x="630" y="180" width="80" height="20" as="geometry" />
        </mxCell>
        <mxCell id="4dZK6Ni6zUAlFKb88EGr-22" value="username terdaftar" style="verticalAlign=bottom;endArrow=block;shadow=0;strokeWidth=1;rounded=0;exitX=0.02;exitY=0.048;exitDx=0;exitDy=0;exitPerimeter=0;dashed=1;" edge="1" parent="1" source="4dZK6Ni6zUAlFKb88EGr-14">
          <mxGeometry relative="1" as="geometry">
            <mxPoint x="450" y="300.48" as="sourcePoint" />
            <mxPoint x="460" y="237" as="targetPoint" />
          </mxGeometry>
        </mxCell>
        <mxCell id="4dZK6Ni6zUAlFKb88EGr-23" value="pesan username terdaftar" style="verticalAlign=bottom;endArrow=block;shadow=0;strokeWidth=1;rounded=0;exitX=-0.22;exitY=0.543;exitDx=0;exitDy=0;exitPerimeter=0;dashed=1;" edge="1" parent="1" source="4dZK6Ni6zUAlFKb88EGr-6">
          <mxGeometry relative="1" as="geometry">
            <mxPoint x="270" y="259.98999999999995" as="sourcePoint" />
            <mxPoint x="120" y="259.79999999999995" as="targetPoint" />
          </mxGeometry>
        </mxCell>
        <mxCell id="4dZK6Ni6zUAlFKb88EGr-24" value="menampilkan dashboard" style="verticalAlign=bottom;endArrow=block;shadow=0;strokeWidth=1;rounded=0;exitX=1.3;exitY=0.281;exitDx=0;exitDy=0;exitPerimeter=0;entryX=-0.071;entryY=0.15;entryDx=0;entryDy=0;entryPerimeter=0;" edge="1" parent="1" target="4dZK6Ni6zUAlFKb88EGr-17">
          <mxGeometry relative="1" as="geometry">
            <mxPoint x="630" y="300.5200000000001" as="sourcePoint" />
            <mxPoint x="780" y="300" as="targetPoint" />
          </mxGeometry>
        </mxCell>
        <mxCell id="4dZK6Ni6zUAlFKb88EGr-25" value="menampilkan dashboard" style="verticalAlign=bottom;endArrow=block;shadow=0;strokeWidth=1;rounded=0;dashed=1;exitX=-0.297;exitY=0.852;exitDx=0;exitDy=0;exitPerimeter=0;" edge="1" parent="1" source="4dZK6Ni6zUAlFKb88EGr-13">
          <mxGeometry relative="1" as="geometry">
            <mxPoint x="612.55" y="335.14" as="sourcePoint" />
            <mxPoint x="460" y="334.6600000000001" as="targetPoint" />
          </mxGeometry>
        </mxCell>
        <mxCell id="4dZK6Ni6zUAlFKb88EGr-26" value="" style="points=[];perimeter=orthogonalPerimeter;rounded=0;shadow=0;strokeWidth=1;" vertex="1" parent="1">
          <mxGeometry x="110" y="360" width="10" height="60" as="geometry" />
        </mxCell>
        <mxCell id="4dZK6Ni6zUAlFKb88EGr-27" value="dashboard tampil" style="verticalAlign=bottom;endArrow=block;shadow=0;strokeWidth=1;rounded=0;dashed=1;exitX=-0.262;exitY=0.995;exitDx=0;exitDy=0;exitPerimeter=0;" edge="1" parent="1" source="4dZK6Ni6zUAlFKb88EGr-6">
          <mxGeometry relative="1" as="geometry">
            <mxPoint x="277.03" y="360.18" as="sourcePoint" />
            <mxPoint x="120" y="360" as="targetPoint" />
          </mxGeometry>
        </mxCell>
      </root>
    </mxGraphModel>
  </diagram>
  <diagram id="6vK2frFxynUDaGRlPMYM" name="Forum">
    <mxGraphModel dx="862" dy="463" grid="1" gridSize="10" guides="1" tooltips="1" connect="1" arrows="1" fold="1" page="1" pageScale="1" pageWidth="827" pageHeight="1169" math="0" shadow="0">
      <root>
        <mxCell id="0" />
        <mxCell id="1" parent="0" />
        <mxCell id="iw2KcjiWiy_QmmlP7rZL-1" value="User" style="shape=umlLifeline;perimeter=lifelinePerimeter;container=1;collapsible=0;recursiveResize=0;rounded=0;shadow=0;strokeWidth=1;" vertex="1" parent="1">
          <mxGeometry x="65" y="60" width="100" height="400" as="geometry" />
        </mxCell>
        <mxCell id="iw2KcjiWiy_QmmlP7rZL-2" value="" style="points=[];perimeter=orthogonalPerimeter;rounded=0;shadow=0;strokeWidth=1;" vertex="1" parent="iw2KcjiWiy_QmmlP7rZL-1">
          <mxGeometry x="45" y="70" width="10" height="60" as="geometry" />
        </mxCell>
        <mxCell id="iw2KcjiWiy_QmmlP7rZL-3" value="" style="verticalAlign=bottom;startArrow=oval;endArrow=block;startSize=8;shadow=0;strokeWidth=1;rounded=0;" edge="1" parent="iw2KcjiWiy_QmmlP7rZL-1" target="iw2KcjiWiy_QmmlP7rZL-2">
          <mxGeometry relative="1" as="geometry">
            <mxPoint x="-15" y="70" as="sourcePoint" />
          </mxGeometry>
        </mxCell>
        <mxCell id="iw2KcjiWiy_QmmlP7rZL-26" value="" style="points=[];perimeter=orthogonalPerimeter;rounded=0;shadow=0;strokeWidth=1;" vertex="1" parent="iw2KcjiWiy_QmmlP7rZL-1">
          <mxGeometry x="45" y="320" width="10" height="60" as="geometry" />
        </mxCell>
        <mxCell id="iw2KcjiWiy_QmmlP7rZL-5" value="User Forum" style="shape=umlLifeline;perimeter=lifelinePerimeter;container=1;collapsible=0;recursiveResize=0;rounded=0;shadow=0;strokeWidth=1;" vertex="1" parent="1">
          <mxGeometry x="245" y="60" width="100" height="400" as="geometry" />
        </mxCell>
        <mxCell id="iw2KcjiWiy_QmmlP7rZL-6" value="" style="points=[];perimeter=orthogonalPerimeter;rounded=0;shadow=0;strokeWidth=1;" vertex="1" parent="iw2KcjiWiy_QmmlP7rZL-5">
          <mxGeometry x="45" y="80" width="10" height="240" as="geometry" />
        </mxCell>
        <mxCell id="iw2KcjiWiy_QmmlP7rZL-8" value="menampilkan forum" style="verticalAlign=bottom;endArrow=block;shadow=0;strokeWidth=1;rounded=0;dashed=1;exitX=-0.297;exitY=0.852;exitDx=0;exitDy=0;exitPerimeter=0;" edge="1" parent="iw2KcjiWiy_QmmlP7rZL-5">
          <mxGeometry relative="1" as="geometry">
            <mxPoint x="212.02999999999997" y="299.49" as="sourcePoint" />
            <mxPoint x="55" y="299.31000000000006" as="targetPoint" />
          </mxGeometry>
        </mxCell>
        <mxCell id="iw2KcjiWiy_QmmlP7rZL-9" value="crud postingan" style="verticalAlign=bottom;endArrow=block;entryX=0;entryY=0;shadow=0;strokeWidth=1;rounded=0;" edge="1" parent="1" source="iw2KcjiWiy_QmmlP7rZL-2" target="iw2KcjiWiy_QmmlP7rZL-6">
          <mxGeometry relative="1" as="geometry">
            <mxPoint x="220" y="140" as="sourcePoint" />
          </mxGeometry>
        </mxCell>
        <mxCell id="iw2KcjiWiy_QmmlP7rZL-10" value="Sistem" style="shape=umlLifeline;perimeter=lifelinePerimeter;container=1;collapsible=0;recursiveResize=0;rounded=0;shadow=0;strokeWidth=1;" vertex="1" parent="1">
          <mxGeometry x="405" y="60" width="100" height="400" as="geometry" />
        </mxCell>
        <mxCell id="iw2KcjiWiy_QmmlP7rZL-11" value="" style="points=[];perimeter=orthogonalPerimeter;rounded=0;shadow=0;strokeWidth=1;" vertex="1" parent="iw2KcjiWiy_QmmlP7rZL-10">
          <mxGeometry x="45" y="110" width="10" height="190" as="geometry" />
        </mxCell>
        <mxCell id="iw2KcjiWiy_QmmlP7rZL-12" value="Database" style="shape=umlLifeline;perimeter=lifelinePerimeter;container=1;collapsible=0;recursiveResize=0;rounded=0;shadow=0;strokeWidth=1;" vertex="1" parent="1">
          <mxGeometry x="575" y="60" width="100" height="400" as="geometry" />
        </mxCell>
        <mxCell id="iw2KcjiWiy_QmmlP7rZL-13" value="" style="points=[];perimeter=orthogonalPerimeter;rounded=0;shadow=0;strokeWidth=1;" vertex="1" parent="iw2KcjiWiy_QmmlP7rZL-12">
          <mxGeometry x="45" y="130" width="10" height="170" as="geometry" />
        </mxCell>
        <mxCell id="iw2KcjiWiy_QmmlP7rZL-16" value="Forum" style="shape=umlLifeline;perimeter=lifelinePerimeter;container=1;collapsible=0;recursiveResize=0;rounded=0;shadow=0;strokeWidth=1;" vertex="1" parent="1">
          <mxGeometry x="740" y="60" width="100" height="400" as="geometry" />
        </mxCell>
        <mxCell id="iw2KcjiWiy_QmmlP7rZL-17" value="" style="points=[];perimeter=orthogonalPerimeter;rounded=0;shadow=0;strokeWidth=1;" vertex="1" parent="iw2KcjiWiy_QmmlP7rZL-16">
          <mxGeometry x="45" y="230" width="10" height="70" as="geometry" />
        </mxCell>
        <mxCell id="iw2KcjiWiy_QmmlP7rZL-18" value="menampilkan forum" style="verticalAlign=bottom;endArrow=block;shadow=0;strokeWidth=1;rounded=0;dashed=1;exitX=-0.245;exitY=0.502;exitDx=0;exitDy=0;exitPerimeter=0;" edge="1" parent="iw2KcjiWiy_QmmlP7rZL-16" source="iw2KcjiWiy_QmmlP7rZL-17">
          <mxGeometry relative="1" as="geometry">
            <mxPoint x="30" y="264.66" as="sourcePoint" />
            <mxPoint x="-110" y="264.66" as="targetPoint" />
          </mxGeometry>
        </mxCell>
        <mxCell id="iw2KcjiWiy_QmmlP7rZL-19" value="postingan" style="verticalAlign=bottom;endArrow=block;shadow=0;strokeWidth=1;rounded=0;" edge="1" parent="1">
          <mxGeometry relative="1" as="geometry">
            <mxPoint x="300" y="191" as="sourcePoint" />
            <mxPoint x="450" y="191" as="targetPoint" />
          </mxGeometry>
        </mxCell>
        <mxCell id="iw2KcjiWiy_QmmlP7rZL-20" value="posts data" style="verticalAlign=bottom;endArrow=block;shadow=0;strokeWidth=1;rounded=0;exitX=1.3;exitY=0.281;exitDx=0;exitDy=0;exitPerimeter=0;entryX=-0.116;entryY=0.12;entryDx=0;entryDy=0;entryPerimeter=0;" edge="1" parent="1" target="iw2KcjiWiy_QmmlP7rZL-13">
          <mxGeometry relative="1" as="geometry">
            <mxPoint x="460" y="210.92000000000007" as="sourcePoint" />
            <mxPoint x="620" y="211" as="targetPoint" />
          </mxGeometry>
        </mxCell>
        <mxCell id="iw2KcjiWiy_QmmlP7rZL-24" value="menampilkan forum" style="verticalAlign=bottom;endArrow=block;shadow=0;strokeWidth=1;rounded=0;exitX=1.3;exitY=0.281;exitDx=0;exitDy=0;exitPerimeter=0;entryX=-0.071;entryY=0.15;entryDx=0;entryDy=0;entryPerimeter=0;" edge="1" parent="1" target="iw2KcjiWiy_QmmlP7rZL-17">
          <mxGeometry relative="1" as="geometry">
            <mxPoint x="630" y="300.5200000000001" as="sourcePoint" />
            <mxPoint x="780" y="300" as="targetPoint" />
          </mxGeometry>
        </mxCell>
        <mxCell id="iw2KcjiWiy_QmmlP7rZL-25" value="menampilkan forum" style="verticalAlign=bottom;endArrow=block;shadow=0;strokeWidth=1;rounded=0;dashed=1;exitX=-0.297;exitY=0.852;exitDx=0;exitDy=0;exitPerimeter=0;" edge="1" parent="1" source="iw2KcjiWiy_QmmlP7rZL-13">
          <mxGeometry relative="1" as="geometry">
            <mxPoint x="612.55" y="335.14" as="sourcePoint" />
            <mxPoint x="460" y="334.6600000000001" as="targetPoint" />
          </mxGeometry>
        </mxCell>
        <mxCell id="iw2KcjiWiy_QmmlP7rZL-27" value="forum tampil" style="verticalAlign=bottom;endArrow=block;shadow=0;strokeWidth=1;rounded=0;dashed=1;exitX=-0.262;exitY=0.995;exitDx=0;exitDy=0;exitPerimeter=0;entryX=1.2;entryY=0;entryDx=0;entryDy=0;entryPerimeter=0;" edge="1" parent="1" source="iw2KcjiWiy_QmmlP7rZL-6" target="iw2KcjiWiy_QmmlP7rZL-26">
          <mxGeometry relative="1" as="geometry">
            <mxPoint x="277.03" y="360.18" as="sourcePoint" />
            <mxPoint x="120" y="360" as="targetPoint" />
          </mxGeometry>
        </mxCell>
      </root>
    </mxGraphModel>
  </diagram>
  <diagram id="3Oo_P1-_H5h38nvzljNo" name="Marketplace">
    <mxGraphModel dx="862" dy="463" grid="1" gridSize="10" guides="1" tooltips="1" connect="1" arrows="1" fold="1" page="1" pageScale="1" pageWidth="827" pageHeight="1169" math="0" shadow="0">
      <root>
        <mxCell id="0" />
        <mxCell id="1" parent="0" />
        <mxCell id="igSSVoWfPjbH7Mkj7B2e-1" value="User" style="shape=umlLifeline;perimeter=lifelinePerimeter;container=1;collapsible=0;recursiveResize=0;rounded=0;shadow=0;strokeWidth=1;" vertex="1" parent="1">
          <mxGeometry x="65" y="60" width="100" height="400" as="geometry" />
        </mxCell>
        <mxCell id="igSSVoWfPjbH7Mkj7B2e-2" value="" style="points=[];perimeter=orthogonalPerimeter;rounded=0;shadow=0;strokeWidth=1;" vertex="1" parent="igSSVoWfPjbH7Mkj7B2e-1">
          <mxGeometry x="45" y="70" width="10" height="60" as="geometry" />
        </mxCell>
        <mxCell id="igSSVoWfPjbH7Mkj7B2e-3" value="" style="verticalAlign=bottom;startArrow=oval;endArrow=block;startSize=8;shadow=0;strokeWidth=1;rounded=0;" edge="1" parent="igSSVoWfPjbH7Mkj7B2e-1" target="igSSVoWfPjbH7Mkj7B2e-2">
          <mxGeometry relative="1" as="geometry">
            <mxPoint x="-15" y="70" as="sourcePoint" />
          </mxGeometry>
        </mxCell>
        <mxCell id="igSSVoWfPjbH7Mkj7B2e-4" value="" style="points=[];perimeter=orthogonalPerimeter;rounded=0;shadow=0;strokeWidth=1;" vertex="1" parent="igSSVoWfPjbH7Mkj7B2e-1">
          <mxGeometry x="45" y="320" width="10" height="60" as="geometry" />
        </mxCell>
        <mxCell id="igSSVoWfPjbH7Mkj7B2e-5" value="User Marketplace" style="shape=umlLifeline;perimeter=lifelinePerimeter;container=1;collapsible=0;recursiveResize=0;rounded=0;shadow=0;strokeWidth=1;" vertex="1" parent="1">
          <mxGeometry x="245" y="60" width="100" height="400" as="geometry" />
        </mxCell>
        <mxCell id="igSSVoWfPjbH7Mkj7B2e-6" value="" style="points=[];perimeter=orthogonalPerimeter;rounded=0;shadow=0;strokeWidth=1;" vertex="1" parent="igSSVoWfPjbH7Mkj7B2e-5">
          <mxGeometry x="45" y="80" width="10" height="240" as="geometry" />
        </mxCell>
        <mxCell id="igSSVoWfPjbH7Mkj7B2e-7" value="menampilkan marketplace" style="verticalAlign=bottom;endArrow=block;shadow=0;strokeWidth=1;rounded=0;dashed=1;exitX=-0.297;exitY=0.852;exitDx=0;exitDy=0;exitPerimeter=0;" edge="1" parent="igSSVoWfPjbH7Mkj7B2e-5">
          <mxGeometry relative="1" as="geometry">
            <mxPoint x="212.02999999999997" y="299.49" as="sourcePoint" />
            <mxPoint x="55" y="299.31000000000006" as="targetPoint" />
          </mxGeometry>
        </mxCell>
        <mxCell id="igSSVoWfPjbH7Mkj7B2e-8" value="crud item" style="verticalAlign=bottom;endArrow=block;entryX=0;entryY=0;shadow=0;strokeWidth=1;rounded=0;" edge="1" parent="1" source="igSSVoWfPjbH7Mkj7B2e-2" target="igSSVoWfPjbH7Mkj7B2e-6">
          <mxGeometry relative="1" as="geometry">
            <mxPoint x="220" y="140" as="sourcePoint" />
          </mxGeometry>
        </mxCell>
        <mxCell id="igSSVoWfPjbH7Mkj7B2e-9" value="Sistem" style="shape=umlLifeline;perimeter=lifelinePerimeter;container=1;collapsible=0;recursiveResize=0;rounded=0;shadow=0;strokeWidth=1;" vertex="1" parent="1">
          <mxGeometry x="405" y="60" width="100" height="400" as="geometry" />
        </mxCell>
        <mxCell id="igSSVoWfPjbH7Mkj7B2e-10" value="" style="points=[];perimeter=orthogonalPerimeter;rounded=0;shadow=0;strokeWidth=1;" vertex="1" parent="igSSVoWfPjbH7Mkj7B2e-9">
          <mxGeometry x="45" y="110" width="10" height="190" as="geometry" />
        </mxCell>
        <mxCell id="igSSVoWfPjbH7Mkj7B2e-11" value="Database" style="shape=umlLifeline;perimeter=lifelinePerimeter;container=1;collapsible=0;recursiveResize=0;rounded=0;shadow=0;strokeWidth=1;" vertex="1" parent="1">
          <mxGeometry x="575" y="60" width="100" height="400" as="geometry" />
        </mxCell>
        <mxCell id="igSSVoWfPjbH7Mkj7B2e-12" value="" style="points=[];perimeter=orthogonalPerimeter;rounded=0;shadow=0;strokeWidth=1;" vertex="1" parent="igSSVoWfPjbH7Mkj7B2e-11">
          <mxGeometry x="45" y="130" width="10" height="170" as="geometry" />
        </mxCell>
        <mxCell id="igSSVoWfPjbH7Mkj7B2e-13" value="Marketplace" style="shape=umlLifeline;perimeter=lifelinePerimeter;container=1;collapsible=0;recursiveResize=0;rounded=0;shadow=0;strokeWidth=1;" vertex="1" parent="1">
          <mxGeometry x="740" y="60" width="100" height="400" as="geometry" />
        </mxCell>
        <mxCell id="igSSVoWfPjbH7Mkj7B2e-14" value="" style="points=[];perimeter=orthogonalPerimeter;rounded=0;shadow=0;strokeWidth=1;" vertex="1" parent="igSSVoWfPjbH7Mkj7B2e-13">
          <mxGeometry x="45" y="230" width="10" height="70" as="geometry" />
        </mxCell>
        <mxCell id="igSSVoWfPjbH7Mkj7B2e-15" value="menampilkan marketplace" style="verticalAlign=bottom;endArrow=block;shadow=0;strokeWidth=1;rounded=0;dashed=1;exitX=-0.245;exitY=0.502;exitDx=0;exitDy=0;exitPerimeter=0;" edge="1" parent="igSSVoWfPjbH7Mkj7B2e-13" source="igSSVoWfPjbH7Mkj7B2e-14">
          <mxGeometry relative="1" as="geometry">
            <mxPoint x="30" y="264.66" as="sourcePoint" />
            <mxPoint x="-110" y="264.66" as="targetPoint" />
          </mxGeometry>
        </mxCell>
        <mxCell id="igSSVoWfPjbH7Mkj7B2e-16" value="item" style="verticalAlign=bottom;endArrow=block;shadow=0;strokeWidth=1;rounded=0;" edge="1" parent="1">
          <mxGeometry relative="1" as="geometry">
            <mxPoint x="300" y="191" as="sourcePoint" />
            <mxPoint x="450" y="191" as="targetPoint" />
          </mxGeometry>
        </mxCell>
        <mxCell id="igSSVoWfPjbH7Mkj7B2e-17" value="items data" style="verticalAlign=bottom;endArrow=block;shadow=0;strokeWidth=1;rounded=0;exitX=1.3;exitY=0.281;exitDx=0;exitDy=0;exitPerimeter=0;entryX=-0.116;entryY=0.12;entryDx=0;entryDy=0;entryPerimeter=0;" edge="1" parent="1" target="igSSVoWfPjbH7Mkj7B2e-12">
          <mxGeometry relative="1" as="geometry">
            <mxPoint x="460" y="210.92000000000007" as="sourcePoint" />
            <mxPoint x="620" y="211" as="targetPoint" />
          </mxGeometry>
        </mxCell>
        <mxCell id="igSSVoWfPjbH7Mkj7B2e-18" value="menampilkan marketplace" style="verticalAlign=bottom;endArrow=block;shadow=0;strokeWidth=1;rounded=0;exitX=1.3;exitY=0.281;exitDx=0;exitDy=0;exitPerimeter=0;entryX=-0.071;entryY=0.15;entryDx=0;entryDy=0;entryPerimeter=0;" edge="1" parent="1" target="igSSVoWfPjbH7Mkj7B2e-14">
          <mxGeometry relative="1" as="geometry">
            <mxPoint x="630" y="300.5200000000001" as="sourcePoint" />
            <mxPoint x="780" y="300" as="targetPoint" />
          </mxGeometry>
        </mxCell>
        <mxCell id="igSSVoWfPjbH7Mkj7B2e-19" value="menampilkan marketplace" style="verticalAlign=bottom;endArrow=block;shadow=0;strokeWidth=1;rounded=0;dashed=1;exitX=-0.297;exitY=0.852;exitDx=0;exitDy=0;exitPerimeter=0;" edge="1" parent="1" source="igSSVoWfPjbH7Mkj7B2e-12">
          <mxGeometry relative="1" as="geometry">
            <mxPoint x="612.55" y="335.14" as="sourcePoint" />
            <mxPoint x="460" y="334.6600000000001" as="targetPoint" />
          </mxGeometry>
        </mxCell>
        <mxCell id="igSSVoWfPjbH7Mkj7B2e-20" value="marketplace tampil" style="verticalAlign=bottom;endArrow=block;shadow=0;strokeWidth=1;rounded=0;dashed=1;exitX=-0.262;exitY=0.995;exitDx=0;exitDy=0;exitPerimeter=0;entryX=1.2;entryY=0;entryDx=0;entryDy=0;entryPerimeter=0;" edge="1" parent="1" source="igSSVoWfPjbH7Mkj7B2e-6" target="igSSVoWfPjbH7Mkj7B2e-4">
          <mxGeometry relative="1" as="geometry">
            <mxPoint x="277.03" y="360.18" as="sourcePoint" />
            <mxPoint x="120" y="360" as="targetPoint" />
          </mxGeometry>
        </mxCell>
      </root>
    </mxGraphModel>
  </diagram>
  <diagram id="SVnsKAqIm8ww1XrMNecY" name="Service">
    <mxGraphModel dx="862" dy="463" grid="1" gridSize="10" guides="1" tooltips="1" connect="1" arrows="1" fold="1" page="1" pageScale="1" pageWidth="827" pageHeight="1169" math="0" shadow="0">
      <root>
        <mxCell id="0" />
        <mxCell id="1" parent="0" />
        <mxCell id="vwWRoExxoJ4Dp4xvYE7p-1" value="User" style="shape=umlLifeline;perimeter=lifelinePerimeter;container=1;collapsible=0;recursiveResize=0;rounded=0;shadow=0;strokeWidth=1;" vertex="1" parent="1">
          <mxGeometry x="65" y="60" width="100" height="400" as="geometry" />
        </mxCell>
        <mxCell id="vwWRoExxoJ4Dp4xvYE7p-2" value="" style="points=[];perimeter=orthogonalPerimeter;rounded=0;shadow=0;strokeWidth=1;" vertex="1" parent="vwWRoExxoJ4Dp4xvYE7p-1">
          <mxGeometry x="45" y="70" width="10" height="60" as="geometry" />
        </mxCell>
        <mxCell id="vwWRoExxoJ4Dp4xvYE7p-3" value="" style="verticalAlign=bottom;startArrow=oval;endArrow=block;startSize=8;shadow=0;strokeWidth=1;rounded=0;" edge="1" parent="vwWRoExxoJ4Dp4xvYE7p-1" target="vwWRoExxoJ4Dp4xvYE7p-2">
          <mxGeometry relative="1" as="geometry">
            <mxPoint x="-15" y="70" as="sourcePoint" />
          </mxGeometry>
        </mxCell>
        <mxCell id="vwWRoExxoJ4Dp4xvYE7p-4" value="" style="points=[];perimeter=orthogonalPerimeter;rounded=0;shadow=0;strokeWidth=1;" vertex="1" parent="vwWRoExxoJ4Dp4xvYE7p-1">
          <mxGeometry x="45" y="320" width="10" height="60" as="geometry" />
        </mxCell>
        <mxCell id="vwWRoExxoJ4Dp4xvYE7p-5" value="User Service" style="shape=umlLifeline;perimeter=lifelinePerimeter;container=1;collapsible=0;recursiveResize=0;rounded=0;shadow=0;strokeWidth=1;" vertex="1" parent="1">
          <mxGeometry x="245" y="60" width="100" height="400" as="geometry" />
        </mxCell>
        <mxCell id="vwWRoExxoJ4Dp4xvYE7p-6" value="" style="points=[];perimeter=orthogonalPerimeter;rounded=0;shadow=0;strokeWidth=1;" vertex="1" parent="vwWRoExxoJ4Dp4xvYE7p-5">
          <mxGeometry x="45" y="80" width="10" height="240" as="geometry" />
        </mxCell>
        <mxCell id="vwWRoExxoJ4Dp4xvYE7p-7" value="menampilkan service" style="verticalAlign=bottom;endArrow=block;shadow=0;strokeWidth=1;rounded=0;dashed=1;exitX=-0.297;exitY=0.852;exitDx=0;exitDy=0;exitPerimeter=0;" edge="1" parent="vwWRoExxoJ4Dp4xvYE7p-5">
          <mxGeometry relative="1" as="geometry">
            <mxPoint x="212.02999999999997" y="299.49" as="sourcePoint" />
            <mxPoint x="55" y="299.31000000000006" as="targetPoint" />
          </mxGeometry>
        </mxCell>
        <mxCell id="vwWRoExxoJ4Dp4xvYE7p-8" value="crud service" style="verticalAlign=bottom;endArrow=block;entryX=0;entryY=0;shadow=0;strokeWidth=1;rounded=0;" edge="1" parent="1" source="vwWRoExxoJ4Dp4xvYE7p-2" target="vwWRoExxoJ4Dp4xvYE7p-6">
          <mxGeometry relative="1" as="geometry">
            <mxPoint x="220" y="140" as="sourcePoint" />
          </mxGeometry>
        </mxCell>
        <mxCell id="vwWRoExxoJ4Dp4xvYE7p-9" value="Sistem" style="shape=umlLifeline;perimeter=lifelinePerimeter;container=1;collapsible=0;recursiveResize=0;rounded=0;shadow=0;strokeWidth=1;" vertex="1" parent="1">
          <mxGeometry x="405" y="60" width="100" height="400" as="geometry" />
        </mxCell>
        <mxCell id="vwWRoExxoJ4Dp4xvYE7p-10" value="" style="points=[];perimeter=orthogonalPerimeter;rounded=0;shadow=0;strokeWidth=1;" vertex="1" parent="vwWRoExxoJ4Dp4xvYE7p-9">
          <mxGeometry x="45" y="110" width="10" height="190" as="geometry" />
        </mxCell>
        <mxCell id="vwWRoExxoJ4Dp4xvYE7p-11" value="Database" style="shape=umlLifeline;perimeter=lifelinePerimeter;container=1;collapsible=0;recursiveResize=0;rounded=0;shadow=0;strokeWidth=1;" vertex="1" parent="1">
          <mxGeometry x="575" y="60" width="100" height="400" as="geometry" />
        </mxCell>
        <mxCell id="vwWRoExxoJ4Dp4xvYE7p-12" value="" style="points=[];perimeter=orthogonalPerimeter;rounded=0;shadow=0;strokeWidth=1;" vertex="1" parent="vwWRoExxoJ4Dp4xvYE7p-11">
          <mxGeometry x="45" y="130" width="10" height="170" as="geometry" />
        </mxCell>
        <mxCell id="vwWRoExxoJ4Dp4xvYE7p-13" value="Service" style="shape=umlLifeline;perimeter=lifelinePerimeter;container=1;collapsible=0;recursiveResize=0;rounded=0;shadow=0;strokeWidth=1;" vertex="1" parent="1">
          <mxGeometry x="740" y="60" width="100" height="400" as="geometry" />
        </mxCell>
        <mxCell id="vwWRoExxoJ4Dp4xvYE7p-14" value="" style="points=[];perimeter=orthogonalPerimeter;rounded=0;shadow=0;strokeWidth=1;" vertex="1" parent="vwWRoExxoJ4Dp4xvYE7p-13">
          <mxGeometry x="45" y="230" width="10" height="70" as="geometry" />
        </mxCell>
        <mxCell id="vwWRoExxoJ4Dp4xvYE7p-15" value="menampilkan service" style="verticalAlign=bottom;endArrow=block;shadow=0;strokeWidth=1;rounded=0;dashed=1;exitX=-0.245;exitY=0.502;exitDx=0;exitDy=0;exitPerimeter=0;" edge="1" parent="vwWRoExxoJ4Dp4xvYE7p-13" source="vwWRoExxoJ4Dp4xvYE7p-14">
          <mxGeometry relative="1" as="geometry">
            <mxPoint x="30" y="264.66" as="sourcePoint" />
            <mxPoint x="-110" y="264.66" as="targetPoint" />
          </mxGeometry>
        </mxCell>
        <mxCell id="vwWRoExxoJ4Dp4xvYE7p-16" value="service" style="verticalAlign=bottom;endArrow=block;shadow=0;strokeWidth=1;rounded=0;" edge="1" parent="1">
          <mxGeometry relative="1" as="geometry">
            <mxPoint x="300" y="191" as="sourcePoint" />
            <mxPoint x="450" y="191" as="targetPoint" />
          </mxGeometry>
        </mxCell>
        <mxCell id="vwWRoExxoJ4Dp4xvYE7p-17" value="services data" style="verticalAlign=bottom;endArrow=block;shadow=0;strokeWidth=1;rounded=0;exitX=1.3;exitY=0.281;exitDx=0;exitDy=0;exitPerimeter=0;entryX=-0.116;entryY=0.12;entryDx=0;entryDy=0;entryPerimeter=0;" edge="1" parent="1" target="vwWRoExxoJ4Dp4xvYE7p-12">
          <mxGeometry relative="1" as="geometry">
            <mxPoint x="460" y="210.92000000000007" as="sourcePoint" />
            <mxPoint x="620" y="211" as="targetPoint" />
          </mxGeometry>
        </mxCell>
        <mxCell id="vwWRoExxoJ4Dp4xvYE7p-18" value="menampilkan service" style="verticalAlign=bottom;endArrow=block;shadow=0;strokeWidth=1;rounded=0;exitX=1.3;exitY=0.281;exitDx=0;exitDy=0;exitPerimeter=0;entryX=-0.071;entryY=0.15;entryDx=0;entryDy=0;entryPerimeter=0;" edge="1" parent="1" target="vwWRoExxoJ4Dp4xvYE7p-14">
          <mxGeometry relative="1" as="geometry">
            <mxPoint x="630" y="300.5200000000001" as="sourcePoint" />
            <mxPoint x="780" y="300" as="targetPoint" />
          </mxGeometry>
        </mxCell>
        <mxCell id="vwWRoExxoJ4Dp4xvYE7p-19" value="menampilkan service" style="verticalAlign=bottom;endArrow=block;shadow=0;strokeWidth=1;rounded=0;dashed=1;exitX=-0.297;exitY=0.852;exitDx=0;exitDy=0;exitPerimeter=0;" edge="1" parent="1" source="vwWRoExxoJ4Dp4xvYE7p-12">
          <mxGeometry relative="1" as="geometry">
            <mxPoint x="612.55" y="335.14" as="sourcePoint" />
            <mxPoint x="460" y="334.6600000000001" as="targetPoint" />
          </mxGeometry>
        </mxCell>
        <mxCell id="vwWRoExxoJ4Dp4xvYE7p-20" value="service tampil" style="verticalAlign=bottom;endArrow=block;shadow=0;strokeWidth=1;rounded=0;dashed=1;exitX=-0.262;exitY=0.995;exitDx=0;exitDy=0;exitPerimeter=0;entryX=1.2;entryY=0;entryDx=0;entryDy=0;entryPerimeter=0;" edge="1" parent="1" source="vwWRoExxoJ4Dp4xvYE7p-6" target="vwWRoExxoJ4Dp4xvYE7p-4">
          <mxGeometry relative="1" as="geometry">
            <mxPoint x="277.03" y="360.18" as="sourcePoint" />
            <mxPoint x="120" y="360" as="targetPoint" />
          </mxGeometry>
        </mxCell>
      </root>
    </mxGraphModel>
  </diagram>
  <diagram id="CeWWkBfYX-jSlPmNX0m5" name="Catatan">
    <mxGraphModel dx="862" dy="463" grid="1" gridSize="10" guides="1" tooltips="1" connect="1" arrows="1" fold="1" page="1" pageScale="1" pageWidth="827" pageHeight="1169" math="0" shadow="0">
      <root>
        <mxCell id="0" />
        <mxCell id="1" parent="0" />
        <mxCell id="kEkzy1-tHH3L7QWwhi6y-1" value="User" style="shape=umlLifeline;perimeter=lifelinePerimeter;container=1;collapsible=0;recursiveResize=0;rounded=0;shadow=0;strokeWidth=1;" vertex="1" parent="1">
          <mxGeometry x="65" y="60" width="100" height="400" as="geometry" />
        </mxCell>
        <mxCell id="kEkzy1-tHH3L7QWwhi6y-2" value="" style="points=[];perimeter=orthogonalPerimeter;rounded=0;shadow=0;strokeWidth=1;" vertex="1" parent="kEkzy1-tHH3L7QWwhi6y-1">
          <mxGeometry x="45" y="70" width="10" height="60" as="geometry" />
        </mxCell>
        <mxCell id="kEkzy1-tHH3L7QWwhi6y-3" value="" style="verticalAlign=bottom;startArrow=oval;endArrow=block;startSize=8;shadow=0;strokeWidth=1;rounded=0;" edge="1" parent="kEkzy1-tHH3L7QWwhi6y-1" target="kEkzy1-tHH3L7QWwhi6y-2">
          <mxGeometry relative="1" as="geometry">
            <mxPoint x="-15" y="70" as="sourcePoint" />
          </mxGeometry>
        </mxCell>
        <mxCell id="kEkzy1-tHH3L7QWwhi6y-4" value="" style="points=[];perimeter=orthogonalPerimeter;rounded=0;shadow=0;strokeWidth=1;" vertex="1" parent="kEkzy1-tHH3L7QWwhi6y-1">
          <mxGeometry x="45" y="320" width="10" height="60" as="geometry" />
        </mxCell>
        <mxCell id="kEkzy1-tHH3L7QWwhi6y-5" value="User Note" style="shape=umlLifeline;perimeter=lifelinePerimeter;container=1;collapsible=0;recursiveResize=0;rounded=0;shadow=0;strokeWidth=1;" vertex="1" parent="1">
          <mxGeometry x="245" y="60" width="100" height="400" as="geometry" />
        </mxCell>
        <mxCell id="kEkzy1-tHH3L7QWwhi6y-6" value="" style="points=[];perimeter=orthogonalPerimeter;rounded=0;shadow=0;strokeWidth=1;" vertex="1" parent="kEkzy1-tHH3L7QWwhi6y-5">
          <mxGeometry x="45" y="80" width="10" height="240" as="geometry" />
        </mxCell>
        <mxCell id="kEkzy1-tHH3L7QWwhi6y-7" value="menampilkan note" style="verticalAlign=bottom;endArrow=block;shadow=0;strokeWidth=1;rounded=0;dashed=1;exitX=-0.297;exitY=0.852;exitDx=0;exitDy=0;exitPerimeter=0;" edge="1" parent="kEkzy1-tHH3L7QWwhi6y-5">
          <mxGeometry relative="1" as="geometry">
            <mxPoint x="212.02999999999997" y="299.49" as="sourcePoint" />
            <mxPoint x="55" y="299.31000000000006" as="targetPoint" />
          </mxGeometry>
        </mxCell>
        <mxCell id="kEkzy1-tHH3L7QWwhi6y-8" value="crud catatan" style="verticalAlign=bottom;endArrow=block;entryX=0;entryY=0;shadow=0;strokeWidth=1;rounded=0;" edge="1" parent="1" source="kEkzy1-tHH3L7QWwhi6y-2" target="kEkzy1-tHH3L7QWwhi6y-6">
          <mxGeometry relative="1" as="geometry">
            <mxPoint x="220" y="140" as="sourcePoint" />
          </mxGeometry>
        </mxCell>
        <mxCell id="kEkzy1-tHH3L7QWwhi6y-9" value="Sistem" style="shape=umlLifeline;perimeter=lifelinePerimeter;container=1;collapsible=0;recursiveResize=0;rounded=0;shadow=0;strokeWidth=1;" vertex="1" parent="1">
          <mxGeometry x="405" y="60" width="100" height="400" as="geometry" />
        </mxCell>
        <mxCell id="kEkzy1-tHH3L7QWwhi6y-10" value="" style="points=[];perimeter=orthogonalPerimeter;rounded=0;shadow=0;strokeWidth=1;" vertex="1" parent="kEkzy1-tHH3L7QWwhi6y-9">
          <mxGeometry x="45" y="110" width="10" height="190" as="geometry" />
        </mxCell>
        <mxCell id="kEkzy1-tHH3L7QWwhi6y-11" value="Database" style="shape=umlLifeline;perimeter=lifelinePerimeter;container=1;collapsible=0;recursiveResize=0;rounded=0;shadow=0;strokeWidth=1;" vertex="1" parent="1">
          <mxGeometry x="575" y="60" width="100" height="400" as="geometry" />
        </mxCell>
        <mxCell id="kEkzy1-tHH3L7QWwhi6y-12" value="" style="points=[];perimeter=orthogonalPerimeter;rounded=0;shadow=0;strokeWidth=1;" vertex="1" parent="kEkzy1-tHH3L7QWwhi6y-11">
          <mxGeometry x="45" y="130" width="10" height="170" as="geometry" />
        </mxCell>
        <mxCell id="kEkzy1-tHH3L7QWwhi6y-13" value="Note" style="shape=umlLifeline;perimeter=lifelinePerimeter;container=1;collapsible=0;recursiveResize=0;rounded=0;shadow=0;strokeWidth=1;" vertex="1" parent="1">
          <mxGeometry x="740" y="60" width="100" height="400" as="geometry" />
        </mxCell>
        <mxCell id="kEkzy1-tHH3L7QWwhi6y-14" value="" style="points=[];perimeter=orthogonalPerimeter;rounded=0;shadow=0;strokeWidth=1;" vertex="1" parent="kEkzy1-tHH3L7QWwhi6y-13">
          <mxGeometry x="45" y="230" width="10" height="70" as="geometry" />
        </mxCell>
        <mxCell id="kEkzy1-tHH3L7QWwhi6y-15" value="menampilkan note" style="verticalAlign=bottom;endArrow=block;shadow=0;strokeWidth=1;rounded=0;dashed=1;exitX=-0.245;exitY=0.502;exitDx=0;exitDy=0;exitPerimeter=0;" edge="1" parent="kEkzy1-tHH3L7QWwhi6y-13" source="kEkzy1-tHH3L7QWwhi6y-14">
          <mxGeometry relative="1" as="geometry">
            <mxPoint x="30" y="264.66" as="sourcePoint" />
            <mxPoint x="-110" y="264.66" as="targetPoint" />
          </mxGeometry>
        </mxCell>
        <mxCell id="kEkzy1-tHH3L7QWwhi6y-16" value="catatan" style="verticalAlign=bottom;endArrow=block;shadow=0;strokeWidth=1;rounded=0;" edge="1" parent="1">
          <mxGeometry relative="1" as="geometry">
            <mxPoint x="300" y="191" as="sourcePoint" />
            <mxPoint x="450" y="191" as="targetPoint" />
          </mxGeometry>
        </mxCell>
        <mxCell id="kEkzy1-tHH3L7QWwhi6y-17" value="notes data" style="verticalAlign=bottom;endArrow=block;shadow=0;strokeWidth=1;rounded=0;exitX=1.3;exitY=0.281;exitDx=0;exitDy=0;exitPerimeter=0;entryX=-0.116;entryY=0.12;entryDx=0;entryDy=0;entryPerimeter=0;" edge="1" parent="1" target="kEkzy1-tHH3L7QWwhi6y-12">
          <mxGeometry relative="1" as="geometry">
            <mxPoint x="460" y="210.92000000000007" as="sourcePoint" />
            <mxPoint x="620" y="211" as="targetPoint" />
          </mxGeometry>
        </mxCell>
        <mxCell id="kEkzy1-tHH3L7QWwhi6y-18" value="menampilkan note" style="verticalAlign=bottom;endArrow=block;shadow=0;strokeWidth=1;rounded=0;exitX=1.3;exitY=0.281;exitDx=0;exitDy=0;exitPerimeter=0;entryX=-0.071;entryY=0.15;entryDx=0;entryDy=0;entryPerimeter=0;" edge="1" parent="1" target="kEkzy1-tHH3L7QWwhi6y-14">
          <mxGeometry relative="1" as="geometry">
            <mxPoint x="630" y="300.5200000000001" as="sourcePoint" />
            <mxPoint x="780" y="300" as="targetPoint" />
          </mxGeometry>
        </mxCell>
        <mxCell id="kEkzy1-tHH3L7QWwhi6y-19" value="menampilkan note" style="verticalAlign=bottom;endArrow=block;shadow=0;strokeWidth=1;rounded=0;dashed=1;exitX=-0.297;exitY=0.852;exitDx=0;exitDy=0;exitPerimeter=0;" edge="1" parent="1" source="kEkzy1-tHH3L7QWwhi6y-12">
          <mxGeometry relative="1" as="geometry">
            <mxPoint x="612.55" y="335.14" as="sourcePoint" />
            <mxPoint x="460" y="334.6600000000001" as="targetPoint" />
          </mxGeometry>
        </mxCell>
        <mxCell id="kEkzy1-tHH3L7QWwhi6y-20" value="note tampil" style="verticalAlign=bottom;endArrow=block;shadow=0;strokeWidth=1;rounded=0;dashed=1;exitX=-0.262;exitY=0.995;exitDx=0;exitDy=0;exitPerimeter=0;entryX=1.2;entryY=0;entryDx=0;entryDy=0;entryPerimeter=0;" edge="1" parent="1" source="kEkzy1-tHH3L7QWwhi6y-6" target="kEkzy1-tHH3L7QWwhi6y-4">
          <mxGeometry relative="1" as="geometry">
            <mxPoint x="277.03" y="360.18" as="sourcePoint" />
            <mxPoint x="120" y="360" as="targetPoint" />
          </mxGeometry>
        </mxCell>
      </root>
    </mxGraphModel>
  </diagram>
  <diagram id="tbKeM4s0PDyGeWLu7-Zp" name="Penjadwalan Mata Kuliah">
    <mxGraphModel dx="862" dy="463" grid="1" gridSize="10" guides="1" tooltips="1" connect="1" arrows="1" fold="1" page="1" pageScale="1" pageWidth="827" pageHeight="1169" math="0" shadow="0">
      <root>
        <mxCell id="0" />
        <mxCell id="1" parent="0" />
        <mxCell id="UEIzskyemILKQvFSDVB1-1" value="User" style="shape=umlLifeline;perimeter=lifelinePerimeter;container=1;collapsible=0;recursiveResize=0;rounded=0;shadow=0;strokeWidth=1;" vertex="1" parent="1">
          <mxGeometry x="65" y="60" width="100" height="400" as="geometry" />
        </mxCell>
        <mxCell id="UEIzskyemILKQvFSDVB1-2" value="" style="points=[];perimeter=orthogonalPerimeter;rounded=0;shadow=0;strokeWidth=1;" vertex="1" parent="UEIzskyemILKQvFSDVB1-1">
          <mxGeometry x="45" y="70" width="10" height="60" as="geometry" />
        </mxCell>
        <mxCell id="UEIzskyemILKQvFSDVB1-3" value="" style="verticalAlign=bottom;startArrow=oval;endArrow=block;startSize=8;shadow=0;strokeWidth=1;rounded=0;" edge="1" parent="UEIzskyemILKQvFSDVB1-1" target="UEIzskyemILKQvFSDVB1-2">
          <mxGeometry relative="1" as="geometry">
            <mxPoint x="-15" y="70" as="sourcePoint" />
          </mxGeometry>
        </mxCell>
        <mxCell id="UEIzskyemILKQvFSDVB1-4" value="" style="points=[];perimeter=orthogonalPerimeter;rounded=0;shadow=0;strokeWidth=1;" vertex="1" parent="UEIzskyemILKQvFSDVB1-1">
          <mxGeometry x="45" y="320" width="10" height="60" as="geometry" />
        </mxCell>
        <mxCell id="UEIzskyemILKQvFSDVB1-5" value="User Penjadwalan" style="shape=umlLifeline;perimeter=lifelinePerimeter;container=1;collapsible=0;recursiveResize=0;rounded=0;shadow=0;strokeWidth=1;" vertex="1" parent="1">
          <mxGeometry x="245" y="60" width="100" height="400" as="geometry" />
        </mxCell>
        <mxCell id="UEIzskyemILKQvFSDVB1-6" value="" style="points=[];perimeter=orthogonalPerimeter;rounded=0;shadow=0;strokeWidth=1;" vertex="1" parent="UEIzskyemILKQvFSDVB1-5">
          <mxGeometry x="45" y="80" width="10" height="240" as="geometry" />
        </mxCell>
        <mxCell id="UEIzskyemILKQvFSDVB1-7" value="menampilkan jadwal" style="verticalAlign=bottom;endArrow=block;shadow=0;strokeWidth=1;rounded=0;dashed=1;exitX=-0.297;exitY=0.852;exitDx=0;exitDy=0;exitPerimeter=0;" edge="1" parent="UEIzskyemILKQvFSDVB1-5">
          <mxGeometry relative="1" as="geometry">
            <mxPoint x="212.02999999999997" y="299.49" as="sourcePoint" />
            <mxPoint x="55" y="299.31000000000006" as="targetPoint" />
          </mxGeometry>
        </mxCell>
        <mxCell id="UEIzskyemILKQvFSDVB1-8" value="crud mata kuliah" style="verticalAlign=bottom;endArrow=block;entryX=0;entryY=0;shadow=0;strokeWidth=1;rounded=0;" edge="1" parent="1" source="UEIzskyemILKQvFSDVB1-2" target="UEIzskyemILKQvFSDVB1-6">
          <mxGeometry relative="1" as="geometry">
            <mxPoint x="220" y="140" as="sourcePoint" />
          </mxGeometry>
        </mxCell>
        <mxCell id="UEIzskyemILKQvFSDVB1-9" value="Sistem" style="shape=umlLifeline;perimeter=lifelinePerimeter;container=1;collapsible=0;recursiveResize=0;rounded=0;shadow=0;strokeWidth=1;" vertex="1" parent="1">
          <mxGeometry x="405" y="60" width="100" height="400" as="geometry" />
        </mxCell>
        <mxCell id="UEIzskyemILKQvFSDVB1-10" value="" style="points=[];perimeter=orthogonalPerimeter;rounded=0;shadow=0;strokeWidth=1;" vertex="1" parent="UEIzskyemILKQvFSDVB1-9">
          <mxGeometry x="45" y="110" width="10" height="190" as="geometry" />
        </mxCell>
        <mxCell id="UEIzskyemILKQvFSDVB1-11" value="Database" style="shape=umlLifeline;perimeter=lifelinePerimeter;container=1;collapsible=0;recursiveResize=0;rounded=0;shadow=0;strokeWidth=1;" vertex="1" parent="1">
          <mxGeometry x="575" y="60" width="100" height="400" as="geometry" />
        </mxCell>
        <mxCell id="UEIzskyemILKQvFSDVB1-12" value="" style="points=[];perimeter=orthogonalPerimeter;rounded=0;shadow=0;strokeWidth=1;" vertex="1" parent="UEIzskyemILKQvFSDVB1-11">
          <mxGeometry x="45" y="130" width="10" height="170" as="geometry" />
        </mxCell>
        <mxCell id="UEIzskyemILKQvFSDVB1-13" value="Mata Kuliah" style="shape=umlLifeline;perimeter=lifelinePerimeter;container=1;collapsible=0;recursiveResize=0;rounded=0;shadow=0;strokeWidth=1;" vertex="1" parent="1">
          <mxGeometry x="740" y="60" width="100" height="400" as="geometry" />
        </mxCell>
        <mxCell id="UEIzskyemILKQvFSDVB1-14" value="" style="points=[];perimeter=orthogonalPerimeter;rounded=0;shadow=0;strokeWidth=1;" vertex="1" parent="UEIzskyemILKQvFSDVB1-13">
          <mxGeometry x="45" y="230" width="10" height="70" as="geometry" />
        </mxCell>
        <mxCell id="UEIzskyemILKQvFSDVB1-15" value="menampilkan jadwal" style="verticalAlign=bottom;endArrow=block;shadow=0;strokeWidth=1;rounded=0;dashed=1;exitX=-0.245;exitY=0.502;exitDx=0;exitDy=0;exitPerimeter=0;" edge="1" parent="UEIzskyemILKQvFSDVB1-13" source="UEIzskyemILKQvFSDVB1-14">
          <mxGeometry relative="1" as="geometry">
            <mxPoint x="30" y="264.66" as="sourcePoint" />
            <mxPoint x="-110" y="264.66" as="targetPoint" />
          </mxGeometry>
        </mxCell>
        <mxCell id="UEIzskyemILKQvFSDVB1-16" value="mata kuliah" style="verticalAlign=bottom;endArrow=block;shadow=0;strokeWidth=1;rounded=0;" edge="1" parent="1">
          <mxGeometry relative="1" as="geometry">
            <mxPoint x="300" y="191" as="sourcePoint" />
            <mxPoint x="450" y="191" as="targetPoint" />
          </mxGeometry>
        </mxCell>
        <mxCell id="UEIzskyemILKQvFSDVB1-17" value="mata kuliah data" style="verticalAlign=bottom;endArrow=block;shadow=0;strokeWidth=1;rounded=0;exitX=1.3;exitY=0.281;exitDx=0;exitDy=0;exitPerimeter=0;entryX=-0.116;entryY=0.12;entryDx=0;entryDy=0;entryPerimeter=0;" edge="1" parent="1" target="UEIzskyemILKQvFSDVB1-12">
          <mxGeometry relative="1" as="geometry">
            <mxPoint x="460" y="210.92000000000007" as="sourcePoint" />
            <mxPoint x="620" y="211" as="targetPoint" />
          </mxGeometry>
        </mxCell>
        <mxCell id="UEIzskyemILKQvFSDVB1-18" value="menampilkan jadwal" style="verticalAlign=bottom;endArrow=block;shadow=0;strokeWidth=1;rounded=0;exitX=1.3;exitY=0.281;exitDx=0;exitDy=0;exitPerimeter=0;entryX=-0.071;entryY=0.15;entryDx=0;entryDy=0;entryPerimeter=0;" edge="1" parent="1" target="UEIzskyemILKQvFSDVB1-14">
          <mxGeometry relative="1" as="geometry">
            <mxPoint x="630" y="300.5200000000001" as="sourcePoint" />
            <mxPoint x="780" y="300" as="targetPoint" />
          </mxGeometry>
        </mxCell>
        <mxCell id="UEIzskyemILKQvFSDVB1-19" value="menampilkan jadwal" style="verticalAlign=bottom;endArrow=block;shadow=0;strokeWidth=1;rounded=0;dashed=1;exitX=-0.297;exitY=0.852;exitDx=0;exitDy=0;exitPerimeter=0;" edge="1" parent="1" source="UEIzskyemILKQvFSDVB1-12">
          <mxGeometry relative="1" as="geometry">
            <mxPoint x="612.55" y="335.14" as="sourcePoint" />
            <mxPoint x="460" y="334.6600000000001" as="targetPoint" />
          </mxGeometry>
        </mxCell>
        <mxCell id="UEIzskyemILKQvFSDVB1-20" value="jadwal tampil" style="verticalAlign=bottom;endArrow=block;shadow=0;strokeWidth=1;rounded=0;dashed=1;exitX=-0.262;exitY=0.995;exitDx=0;exitDy=0;exitPerimeter=0;entryX=1.2;entryY=0;entryDx=0;entryDy=0;entryPerimeter=0;" edge="1" parent="1" source="UEIzskyemILKQvFSDVB1-6" target="UEIzskyemILKQvFSDVB1-4">
          <mxGeometry relative="1" as="geometry">
            <mxPoint x="277.03" y="360.18" as="sourcePoint" />
            <mxPoint x="120" y="360" as="targetPoint" />
          </mxGeometry>
        </mxCell>
      </root>
    </mxGraphModel>
  </diagram>
  <diagram id="fyIVstYLrFRFM_5JIYat" name="Penjadwalan Tugas">
    <mxGraphModel dx="862" dy="463" grid="1" gridSize="10" guides="1" tooltips="1" connect="1" arrows="1" fold="1" page="1" pageScale="1" pageWidth="827" pageHeight="1169" math="0" shadow="0">
      <root>
        <mxCell id="0" />
        <mxCell id="1" parent="0" />
        <mxCell id="U8qjGZIRw_yZbk1oVuza-1" value="User" style="shape=umlLifeline;perimeter=lifelinePerimeter;container=1;collapsible=0;recursiveResize=0;rounded=0;shadow=0;strokeWidth=1;" vertex="1" parent="1">
          <mxGeometry x="65" y="60" width="100" height="400" as="geometry" />
        </mxCell>
        <mxCell id="U8qjGZIRw_yZbk1oVuza-2" value="" style="points=[];perimeter=orthogonalPerimeter;rounded=0;shadow=0;strokeWidth=1;" vertex="1" parent="U8qjGZIRw_yZbk1oVuza-1">
          <mxGeometry x="45" y="70" width="10" height="60" as="geometry" />
        </mxCell>
        <mxCell id="U8qjGZIRw_yZbk1oVuza-3" value="" style="verticalAlign=bottom;startArrow=oval;endArrow=block;startSize=8;shadow=0;strokeWidth=1;rounded=0;" edge="1" parent="U8qjGZIRw_yZbk1oVuza-1" target="U8qjGZIRw_yZbk1oVuza-2">
          <mxGeometry relative="1" as="geometry">
            <mxPoint x="-15" y="70" as="sourcePoint" />
          </mxGeometry>
        </mxCell>
        <mxCell id="U8qjGZIRw_yZbk1oVuza-4" value="" style="points=[];perimeter=orthogonalPerimeter;rounded=0;shadow=0;strokeWidth=1;" vertex="1" parent="U8qjGZIRw_yZbk1oVuza-1">
          <mxGeometry x="45" y="320" width="10" height="60" as="geometry" />
        </mxCell>
        <mxCell id="U8qjGZIRw_yZbk1oVuza-5" value="User Penjadwalan" style="shape=umlLifeline;perimeter=lifelinePerimeter;container=1;collapsible=0;recursiveResize=0;rounded=0;shadow=0;strokeWidth=1;" vertex="1" parent="1">
          <mxGeometry x="245" y="60" width="100" height="400" as="geometry" />
        </mxCell>
        <mxCell id="U8qjGZIRw_yZbk1oVuza-6" value="" style="points=[];perimeter=orthogonalPerimeter;rounded=0;shadow=0;strokeWidth=1;" vertex="1" parent="U8qjGZIRw_yZbk1oVuza-5">
          <mxGeometry x="45" y="80" width="10" height="240" as="geometry" />
        </mxCell>
        <mxCell id="U8qjGZIRw_yZbk1oVuza-7" value="menampilkan jadwal" style="verticalAlign=bottom;endArrow=block;shadow=0;strokeWidth=1;rounded=0;dashed=1;exitX=-0.297;exitY=0.852;exitDx=0;exitDy=0;exitPerimeter=0;" edge="1" parent="U8qjGZIRw_yZbk1oVuza-5">
          <mxGeometry relative="1" as="geometry">
            <mxPoint x="212.02999999999997" y="299.49" as="sourcePoint" />
            <mxPoint x="55" y="299.31000000000006" as="targetPoint" />
          </mxGeometry>
        </mxCell>
        <mxCell id="U8qjGZIRw_yZbk1oVuza-8" value="crud tugas" style="verticalAlign=bottom;endArrow=block;entryX=0;entryY=0;shadow=0;strokeWidth=1;rounded=0;" edge="1" parent="1" source="U8qjGZIRw_yZbk1oVuza-2" target="U8qjGZIRw_yZbk1oVuza-6">
          <mxGeometry relative="1" as="geometry">
            <mxPoint x="220" y="140" as="sourcePoint" />
          </mxGeometry>
        </mxCell>
        <mxCell id="U8qjGZIRw_yZbk1oVuza-9" value="Sistem" style="shape=umlLifeline;perimeter=lifelinePerimeter;container=1;collapsible=0;recursiveResize=0;rounded=0;shadow=0;strokeWidth=1;" vertex="1" parent="1">
          <mxGeometry x="405" y="60" width="100" height="400" as="geometry" />
        </mxCell>
        <mxCell id="U8qjGZIRw_yZbk1oVuza-10" value="" style="points=[];perimeter=orthogonalPerimeter;rounded=0;shadow=0;strokeWidth=1;" vertex="1" parent="U8qjGZIRw_yZbk1oVuza-9">
          <mxGeometry x="45" y="110" width="10" height="190" as="geometry" />
        </mxCell>
        <mxCell id="U8qjGZIRw_yZbk1oVuza-11" value="Database" style="shape=umlLifeline;perimeter=lifelinePerimeter;container=1;collapsible=0;recursiveResize=0;rounded=0;shadow=0;strokeWidth=1;" vertex="1" parent="1">
          <mxGeometry x="575" y="60" width="100" height="400" as="geometry" />
        </mxCell>
        <mxCell id="U8qjGZIRw_yZbk1oVuza-12" value="" style="points=[];perimeter=orthogonalPerimeter;rounded=0;shadow=0;strokeWidth=1;" vertex="1" parent="U8qjGZIRw_yZbk1oVuza-11">
          <mxGeometry x="45" y="130" width="10" height="170" as="geometry" />
        </mxCell>
        <mxCell id="U8qjGZIRw_yZbk1oVuza-13" value="Tugas" style="shape=umlLifeline;perimeter=lifelinePerimeter;container=1;collapsible=0;recursiveResize=0;rounded=0;shadow=0;strokeWidth=1;" vertex="1" parent="1">
          <mxGeometry x="740" y="60" width="100" height="400" as="geometry" />
        </mxCell>
        <mxCell id="U8qjGZIRw_yZbk1oVuza-14" value="" style="points=[];perimeter=orthogonalPerimeter;rounded=0;shadow=0;strokeWidth=1;" vertex="1" parent="U8qjGZIRw_yZbk1oVuza-13">
          <mxGeometry x="45" y="230" width="10" height="70" as="geometry" />
        </mxCell>
        <mxCell id="U8qjGZIRw_yZbk1oVuza-15" value="menampilkan jadwal" style="verticalAlign=bottom;endArrow=block;shadow=0;strokeWidth=1;rounded=0;dashed=1;exitX=-0.245;exitY=0.502;exitDx=0;exitDy=0;exitPerimeter=0;" edge="1" parent="U8qjGZIRw_yZbk1oVuza-13" source="U8qjGZIRw_yZbk1oVuza-14">
          <mxGeometry relative="1" as="geometry">
            <mxPoint x="30" y="264.66" as="sourcePoint" />
            <mxPoint x="-110" y="264.66" as="targetPoint" />
          </mxGeometry>
        </mxCell>
        <mxCell id="U8qjGZIRw_yZbk1oVuza-16" value="tugas" style="verticalAlign=bottom;endArrow=block;shadow=0;strokeWidth=1;rounded=0;" edge="1" parent="1">
          <mxGeometry relative="1" as="geometry">
            <mxPoint x="300" y="191" as="sourcePoint" />
            <mxPoint x="450" y="191" as="targetPoint" />
          </mxGeometry>
        </mxCell>
        <mxCell id="U8qjGZIRw_yZbk1oVuza-17" value="tugas data" style="verticalAlign=bottom;endArrow=block;shadow=0;strokeWidth=1;rounded=0;exitX=1.3;exitY=0.281;exitDx=0;exitDy=0;exitPerimeter=0;entryX=-0.116;entryY=0.12;entryDx=0;entryDy=0;entryPerimeter=0;" edge="1" parent="1" target="U8qjGZIRw_yZbk1oVuza-12">
          <mxGeometry relative="1" as="geometry">
            <mxPoint x="460" y="210.92000000000007" as="sourcePoint" />
            <mxPoint x="620" y="211" as="targetPoint" />
          </mxGeometry>
        </mxCell>
        <mxCell id="U8qjGZIRw_yZbk1oVuza-18" value="menampilkan jadwal" style="verticalAlign=bottom;endArrow=block;shadow=0;strokeWidth=1;rounded=0;exitX=1.3;exitY=0.281;exitDx=0;exitDy=0;exitPerimeter=0;entryX=-0.071;entryY=0.15;entryDx=0;entryDy=0;entryPerimeter=0;" edge="1" parent="1" target="U8qjGZIRw_yZbk1oVuza-14">
          <mxGeometry relative="1" as="geometry">
            <mxPoint x="630" y="300.5200000000001" as="sourcePoint" />
            <mxPoint x="780" y="300" as="targetPoint" />
          </mxGeometry>
        </mxCell>
        <mxCell id="U8qjGZIRw_yZbk1oVuza-19" value="menampilkan jadwal" style="verticalAlign=bottom;endArrow=block;shadow=0;strokeWidth=1;rounded=0;dashed=1;exitX=-0.297;exitY=0.852;exitDx=0;exitDy=0;exitPerimeter=0;" edge="1" parent="1" source="U8qjGZIRw_yZbk1oVuza-12">
          <mxGeometry relative="1" as="geometry">
            <mxPoint x="612.55" y="335.14" as="sourcePoint" />
            <mxPoint x="460" y="334.6600000000001" as="targetPoint" />
          </mxGeometry>
        </mxCell>
        <mxCell id="U8qjGZIRw_yZbk1oVuza-20" value="jadwal tampil" style="verticalAlign=bottom;endArrow=block;shadow=0;strokeWidth=1;rounded=0;dashed=1;exitX=-0.262;exitY=0.995;exitDx=0;exitDy=0;exitPerimeter=0;entryX=1.2;entryY=0;entryDx=0;entryDy=0;entryPerimeter=0;" edge="1" parent="1" source="U8qjGZIRw_yZbk1oVuza-6" target="U8qjGZIRw_yZbk1oVuza-4">
          <mxGeometry relative="1" as="geometry">
            <mxPoint x="277.03" y="360.18" as="sourcePoint" />
            <mxPoint x="120" y="360" as="targetPoint" />
          </mxGeometry>
        </mxCell>
      </root>
    </mxGraphModel>
  </diagram>
  <diagram id="G0T7OtglcuDRi-p3mGhQ" name="Penjadwalan Acara">
    <mxGraphModel dx="862" dy="520" grid="1" gridSize="10" guides="1" tooltips="1" connect="1" arrows="1" fold="1" page="1" pageScale="1" pageWidth="827" pageHeight="1169" math="0" shadow="0">
      <root>
        <mxCell id="0" />
        <mxCell id="1" parent="0" />
        <mxCell id="hlRBCbUDlgvSo6bNhidv-1" value="User" style="shape=umlLifeline;perimeter=lifelinePerimeter;container=1;collapsible=0;recursiveResize=0;rounded=0;shadow=0;strokeWidth=1;" vertex="1" parent="1">
          <mxGeometry x="65" y="60" width="100" height="400" as="geometry" />
        </mxCell>
        <mxCell id="hlRBCbUDlgvSo6bNhidv-2" value="" style="points=[];perimeter=orthogonalPerimeter;rounded=0;shadow=0;strokeWidth=1;" vertex="1" parent="hlRBCbUDlgvSo6bNhidv-1">
          <mxGeometry x="45" y="70" width="10" height="60" as="geometry" />
        </mxCell>
        <mxCell id="hlRBCbUDlgvSo6bNhidv-3" value="" style="verticalAlign=bottom;startArrow=oval;endArrow=block;startSize=8;shadow=0;strokeWidth=1;rounded=0;" edge="1" parent="hlRBCbUDlgvSo6bNhidv-1" target="hlRBCbUDlgvSo6bNhidv-2">
          <mxGeometry relative="1" as="geometry">
            <mxPoint x="-15" y="70" as="sourcePoint" />
          </mxGeometry>
        </mxCell>
        <mxCell id="hlRBCbUDlgvSo6bNhidv-4" value="" style="points=[];perimeter=orthogonalPerimeter;rounded=0;shadow=0;strokeWidth=1;" vertex="1" parent="hlRBCbUDlgvSo6bNhidv-1">
          <mxGeometry x="45" y="320" width="10" height="60" as="geometry" />
        </mxCell>
        <mxCell id="hlRBCbUDlgvSo6bNhidv-5" value="User Penjadwalan" style="shape=umlLifeline;perimeter=lifelinePerimeter;container=1;collapsible=0;recursiveResize=0;rounded=0;shadow=0;strokeWidth=1;" vertex="1" parent="1">
          <mxGeometry x="245" y="60" width="100" height="400" as="geometry" />
        </mxCell>
        <mxCell id="hlRBCbUDlgvSo6bNhidv-6" value="" style="points=[];perimeter=orthogonalPerimeter;rounded=0;shadow=0;strokeWidth=1;" vertex="1" parent="hlRBCbUDlgvSo6bNhidv-5">
          <mxGeometry x="45" y="80" width="10" height="240" as="geometry" />
        </mxCell>
        <mxCell id="hlRBCbUDlgvSo6bNhidv-7" value="menampilkan jadwal" style="verticalAlign=bottom;endArrow=block;shadow=0;strokeWidth=1;rounded=0;dashed=1;exitX=-0.297;exitY=0.852;exitDx=0;exitDy=0;exitPerimeter=0;" edge="1" parent="hlRBCbUDlgvSo6bNhidv-5">
          <mxGeometry relative="1" as="geometry">
            <mxPoint x="212.02999999999997" y="299.49" as="sourcePoint" />
            <mxPoint x="55" y="299.31000000000006" as="targetPoint" />
          </mxGeometry>
        </mxCell>
        <mxCell id="hlRBCbUDlgvSo6bNhidv-8" value="crud acara" style="verticalAlign=bottom;endArrow=block;entryX=0;entryY=0;shadow=0;strokeWidth=1;rounded=0;" edge="1" parent="1" source="hlRBCbUDlgvSo6bNhidv-2" target="hlRBCbUDlgvSo6bNhidv-6">
          <mxGeometry relative="1" as="geometry">
            <mxPoint x="220" y="140" as="sourcePoint" />
          </mxGeometry>
        </mxCell>
        <mxCell id="hlRBCbUDlgvSo6bNhidv-9" value="Sistem" style="shape=umlLifeline;perimeter=lifelinePerimeter;container=1;collapsible=0;recursiveResize=0;rounded=0;shadow=0;strokeWidth=1;" vertex="1" parent="1">
          <mxGeometry x="405" y="60" width="100" height="400" as="geometry" />
        </mxCell>
        <mxCell id="hlRBCbUDlgvSo6bNhidv-10" value="" style="points=[];perimeter=orthogonalPerimeter;rounded=0;shadow=0;strokeWidth=1;" vertex="1" parent="hlRBCbUDlgvSo6bNhidv-9">
          <mxGeometry x="45" y="110" width="10" height="190" as="geometry" />
        </mxCell>
        <mxCell id="hlRBCbUDlgvSo6bNhidv-11" value="Database" style="shape=umlLifeline;perimeter=lifelinePerimeter;container=1;collapsible=0;recursiveResize=0;rounded=0;shadow=0;strokeWidth=1;" vertex="1" parent="1">
          <mxGeometry x="575" y="60" width="100" height="400" as="geometry" />
        </mxCell>
        <mxCell id="hlRBCbUDlgvSo6bNhidv-12" value="" style="points=[];perimeter=orthogonalPerimeter;rounded=0;shadow=0;strokeWidth=1;" vertex="1" parent="hlRBCbUDlgvSo6bNhidv-11">
          <mxGeometry x="45" y="130" width="10" height="170" as="geometry" />
        </mxCell>
        <mxCell id="hlRBCbUDlgvSo6bNhidv-13" value="Acara" style="shape=umlLifeline;perimeter=lifelinePerimeter;container=1;collapsible=0;recursiveResize=0;rounded=0;shadow=0;strokeWidth=1;" vertex="1" parent="1">
          <mxGeometry x="740" y="60" width="100" height="400" as="geometry" />
        </mxCell>
        <mxCell id="hlRBCbUDlgvSo6bNhidv-14" value="" style="points=[];perimeter=orthogonalPerimeter;rounded=0;shadow=0;strokeWidth=1;" vertex="1" parent="hlRBCbUDlgvSo6bNhidv-13">
          <mxGeometry x="45" y="230" width="10" height="70" as="geometry" />
        </mxCell>
        <mxCell id="hlRBCbUDlgvSo6bNhidv-15" value="menampilkan jadwal" style="verticalAlign=bottom;endArrow=block;shadow=0;strokeWidth=1;rounded=0;dashed=1;exitX=-0.245;exitY=0.502;exitDx=0;exitDy=0;exitPerimeter=0;" edge="1" parent="hlRBCbUDlgvSo6bNhidv-13" source="hlRBCbUDlgvSo6bNhidv-14">
          <mxGeometry relative="1" as="geometry">
            <mxPoint x="30" y="264.66" as="sourcePoint" />
            <mxPoint x="-110" y="264.66" as="targetPoint" />
          </mxGeometry>
        </mxCell>
        <mxCell id="hlRBCbUDlgvSo6bNhidv-16" value="acara" style="verticalAlign=bottom;endArrow=block;shadow=0;strokeWidth=1;rounded=0;" edge="1" parent="1">
          <mxGeometry relative="1" as="geometry">
            <mxPoint x="300" y="191" as="sourcePoint" />
            <mxPoint x="450" y="191" as="targetPoint" />
          </mxGeometry>
        </mxCell>
        <mxCell id="hlRBCbUDlgvSo6bNhidv-17" value="acara data" style="verticalAlign=bottom;endArrow=block;shadow=0;strokeWidth=1;rounded=0;exitX=1.3;exitY=0.281;exitDx=0;exitDy=0;exitPerimeter=0;entryX=-0.116;entryY=0.12;entryDx=0;entryDy=0;entryPerimeter=0;" edge="1" parent="1" target="hlRBCbUDlgvSo6bNhidv-12">
          <mxGeometry relative="1" as="geometry">
            <mxPoint x="460" y="210.92000000000007" as="sourcePoint" />
            <mxPoint x="620" y="211" as="targetPoint" />
          </mxGeometry>
        </mxCell>
        <mxCell id="hlRBCbUDlgvSo6bNhidv-18" value="menampilkan jadwal" style="verticalAlign=bottom;endArrow=block;shadow=0;strokeWidth=1;rounded=0;exitX=1.3;exitY=0.281;exitDx=0;exitDy=0;exitPerimeter=0;entryX=-0.071;entryY=0.15;entryDx=0;entryDy=0;entryPerimeter=0;" edge="1" parent="1" target="hlRBCbUDlgvSo6bNhidv-14">
          <mxGeometry relative="1" as="geometry">
            <mxPoint x="630" y="300.5200000000001" as="sourcePoint" />
            <mxPoint x="780" y="300" as="targetPoint" />
          </mxGeometry>
        </mxCell>
        <mxCell id="hlRBCbUDlgvSo6bNhidv-19" value="menampilkan jadwal" style="verticalAlign=bottom;endArrow=block;shadow=0;strokeWidth=1;rounded=0;dashed=1;exitX=-0.297;exitY=0.852;exitDx=0;exitDy=0;exitPerimeter=0;" edge="1" parent="1" source="hlRBCbUDlgvSo6bNhidv-12">
          <mxGeometry relative="1" as="geometry">
            <mxPoint x="612.55" y="335.14" as="sourcePoint" />
            <mxPoint x="460" y="334.6600000000001" as="targetPoint" />
          </mxGeometry>
        </mxCell>
        <mxCell id="hlRBCbUDlgvSo6bNhidv-20" value="jadwal tampil" style="verticalAlign=bottom;endArrow=block;shadow=0;strokeWidth=1;rounded=0;dashed=1;exitX=-0.262;exitY=0.995;exitDx=0;exitDy=0;exitPerimeter=0;entryX=1.2;entryY=0;entryDx=0;entryDy=0;entryPerimeter=0;" edge="1" parent="1" source="hlRBCbUDlgvSo6bNhidv-6" target="hlRBCbUDlgvSo6bNhidv-4">
          <mxGeometry relative="1" as="geometry">
            <mxPoint x="277.03" y="360.18" as="sourcePoint" />
            <mxPoint x="120" y="360" as="targetPoint" />
          </mxGeometry>
        </mxCell>
      </root>
    </mxGraphModel>
  </diagram>
</mxfile>
